<svg xmlns="http://www.w3.org/2000/svg" width="25.5" height="39" viewBox="0 0 25.5 39">
  <path id="lightning-icon" d="M11.585,40.6a2.257,2.257,0,0,1-1.088-.286,2.324,2.324,0,0,1-.826-.78,2.41,2.41,0,0,1-.189-2.224l5.194-12.15H8.969a3.284,3.284,0,0,1-1.619-.416,3.383,3.383,0,0,1-1.222-1.166,3.507,3.507,0,0,1-.211-3.308L13.432,3.625a3.44,3.44,0,0,1,1.237-1.469A3.317,3.317,0,0,1,16.483,1.6h7.9a2.256,2.256,0,0,1,1.109.295,2.326,2.326,0,0,1,.833.806,2.411,2.411,0,0,1,.132,2.271L21.213,16.21h6.518a3.3,3.3,0,0,1,1.863.57,3.423,3.423,0,0,1,1.242,1.533,3.522,3.522,0,0,1,.205,1.982,3.473,3.473,0,0,1-.9,1.766L13.234,39.881a2.3,2.3,0,0,1-.753.531A2.25,2.25,0,0,1,11.585,40.6Zm4.957-17.951a1.116,1.116,0,0,1,.569.125,1.256,1.256,0,0,1,.447.423,1.3,1.3,0,0,1,.1,1.2l-5.54,13.02L28.343,20.3a.907.907,0,0,0,.249-.476.923.923,0,0,0-.061-.536.9.9,0,0,0-.331-.41.864.864,0,0,0-.5-.147H19.258a1.217,1.217,0,0,1-.6-.157,1.257,1.257,0,0,1-.45-.431,1.346,1.346,0,0,1-.069-1.225L24.067,4.141H16.483A.873.873,0,0,0,16,4.287a.905.905,0,0,0-.328.391l-7.5,16.675a.931.931,0,0,0,.052.868.9.9,0,0,0,.316.31.873.873,0,0,0,.422.118Z" transform="translate(-5.6 -1.6)" fill="#e24f27"/>
</svg>
