<?xml version="1.0" encoding="utf-8"?>
<!-- Generator: Adobe Illustrator 26.3.1, SVG Export Plug-In . SVG Version: 6.00 Build 0)  -->
<svg version="1.1" id="Layer_1" xmlns="http://www.w3.org/2000/svg" xmlns:xlink="http://www.w3.org/1999/xlink" x="0px" y="0px"
	 viewBox="0 0 24 24" style="enable-background:new 0 0 24 24;" xml:space="preserve">
<style type="text/css">
	.st0{fill-rule:evenodd;clip-rule:evenodd;fill:#E24F27;}
</style>
<path class="st0" d="M20.8,4L22,4.6c0.2,0.1,0.2,0.3,0,0.4l-1.2,0.6c-0.4,0.2-0.7,0.5-0.9,0.9l-0.6,1.2C19.3,8,19,8,18.9,7.8
	l-0.6-1.2c-0.2-0.4-0.5-0.7-0.9-0.9l-1.2-0.6C16,5,16,4.7,16.2,4.6L17.4,4c0.4-0.2,0.7-0.5,0.9-0.9l0.6-1.2c0.1-0.2,0.3-0.2,0.4,0
	L20,3.2C20.2,3.5,20.5,3.8,20.8,4z M22.1,18.9l-1.2-0.6c-0.4-0.2-0.7-0.5-0.9-0.9l-0.6-1.2c-0.1-0.2-0.3-0.2-0.4,0l-0.6,1.2
	c-0.2,0.4-0.5,0.7-0.9,0.9l-1.2,0.6c-0.2,0.1-0.2,0.3,0,0.4l1.2,0.6c0.4,0.2,0.7,0.5,0.9,0.9L19,22c0.1,0.2,0.3,0.2,0.4,0l0.6-1.2
	c0.2-0.4,0.5-0.7,0.9-0.9l1.2-0.6C22.2,19.3,22.2,19,22.1,18.9z M12.9,10l2.2,1.1l0,0l0,0l0,0l0.7,0.3c0.4,0.2,0.4,0.8,0,1l-0.7,0.3
	l0,0l0,0l0,0l-2.2,1.1c-0.9,0.4-1.6,1.1-2,2L9.8,18l0,0l0,0l0,0l-0.3,0.7c-0.2,0.4-0.8,0.4-1,0L8.2,18l0,0l0,0l0,0L7,15.9
	c-0.4-0.9-1.1-1.6-2-2l-2.2-1.1l0,0l0,0l0,0l-0.7-0.3c-0.4-0.2-0.4-0.8,0-1l0.7-0.3l0,0l0,0l0,0L5,10c0.9-0.4,1.6-1.1,2-2l1.1-2.2
	l0,0l0,0l0,0l0.3-0.7c0.2-0.4,0.8-0.4,1,0l0.3,0.7l0,0l0,0l0,0L10.9,8C11.3,8.9,12,9.6,12.9,10z M12.2,11.3l1.2,0.6l-1.2,0.6l0,0
	c-1.2,0.6-2.1,1.5-2.7,2.7l0,0l-0.6,1.2l-0.6-1.2l0,0c-0.6-1.2-1.5-2.1-2.7-2.7l0,0l-1.2-0.6l1.2-0.6l0,0c1.2-0.6,2.1-1.5,2.7-2.7
	l0,0l0.6-1.2l0.6,1.2l0,0C10.1,9.8,11.1,10.8,12.2,11.3L12.2,11.3z"/>
</svg>
