<svg xmlns="http://www.w3.org/2000/svg" width="1064.141" height="785.309" viewBox="0 0 1064.141 785.309">
  <g id="witch-heads" transform="translate(-0.011 -0.014)">
    <path id="Path_11" data-name="Path 11" d="M118.08,292.32a34.786,34.786,0,0,1-5.12-.43c-15.44-3.47-29.81-9.45-42.5-19.03a66.663,66.663,0,0,1-8.77-8.2c-5.32-5.81-7.23-12.87-6.74-20.63a7.978,7.978,0,0,1,.9-3.26c2.04-3.69,4.43-7.13,8.03-9.51a37.551,37.551,0,0,1,13.65-5.63c11.91-2.35,23.86-3.22,35.86-1.14,7.38,1.28,13.11-1.06,17.56-6.92,1.27-1.67,2.57-3.32,3.79-5.04q20.355-28.74,40.73-57.49c2.21-3.1,4.85-5.9,7.19-8.92,1.86-2.41,3.54-4.95,5.33-7.41a24.857,24.857,0,0,1,2.16-2.64c14.49-14.97,28-30.82,41.86-46.35,13.6-15.25,27.28-30.45,41.37-45.25A170.87,170.87,0,0,1,309.6,15.66c4.91-2.94,9.61-6.22,14.39-9.36,1.76-1.15,3.48-2.36,5.24-3.49,10.18-6.53,21.91-.92,24.47,9.58,1.5,6.14,3.93,11.94,6.11,17.83,6.35,17.16,15.79,32.58,26.35,47.39,11.2,15.7,22.44,31.38,33.46,47.2,13.13,18.84,23.78,39.13,34.1,59.58,4.9,9.71,9.53,19.55,14.26,29.34a22.421,22.421,0,0,1,1.62,3.66c1.97,7.05,5.37,13.44,8.88,19.79,2.58,4.68,5.02,9.43,7.54,14.15,1.7,3.19,3.08,6.6,6.09,8.89a1.122,1.122,0,0,1,.37.44c2.62,6.15,8.06,10.09,11.98,15.23a32.667,32.667,0,0,0,15.66,11.07c3.6,1.25,7.2,2.55,10.85,3.64,7.99,2.39,15,6.59,21.59,11.56a125.56,125.56,0,0,1,10.21,8.32c5.39,5.02,8.6,11.17,8.22,18.77-.33,6.72-3.12,12.04-8.93,15.75-6.88,4.38-14.21,7.35-22.4,7.99-11.43.89-22.87,1.8-34.32.37-4.14-.52-8.22-1.56-12.33-2.36a7.8,7.8,0,0,1-.55-4.96c1.37-5.34,2.45-10.76,3.57-16.17,1.06-5.1,2.71-9.91,5.9-14.13.63-.83.74-2.05,1.23-3.49-2.55-.92-4.82-1.86-7.16-2.56-6.39-1.92-12.82-3.7-19.2-5.63-10.78-3.25-21.86-5.07-32.9-7.12-1.45-.41-2.87-.92-4.34-1.23-15.1-3.16-30.16-6.53-45.33-9.36-13.48-2.52-27.06-4.52-40.62-6.57-20.91-3.16-41.89-5.75-62.67-9.88-17-3.37-34.21-5.66-51.49-7.35-7.59-.74-15.14-1.83-22.72-2.66-9.28-1.01-18.58-1.93-27.88-2.84a18.173,18.173,0,0,0-2.84.16c-13.31-3.29-26.88-5.07-40.41-7.04-3.01-.44-6.02-.81-9.05-1.1-4.71-.46-6.15.46-7.17,5.16-1.25,5.75-2.26,11.56-3.28,17.35-.89,5.05-1.65,10.12-2.44,15.19-.39,2.48-1.5,4.27-4.14,4.81a6.314,6.314,0,0,0-1.49.75Z" fill="#664a77"/>
    <path id="Path_12" data-name="Path 12" d="M948.92,339.15q-8.235.975-16.46,1.96-17.055,2.055-34.11,4.11c-7.01.85-14.03,1.67-21.02,2.65-12.28,1.72-24.58,3.39-36.82,5.4-10.92,1.79-21.75,4.09-32.64,6.02-10.52,1.87-21.06,3.59-31.61,5.32-12.8,2.1-25.64,4.02-38.42,6.21q-24.825,4.245-49.34,10.06-15.03,3.57-30.06,7.15a159.488,159.488,0,0,0-24.92,6.09c-6.36,2.02-12.7,4.11-19.09,6.02-3.36,1.01-3.75,2.36-3.48,5.53a22.775,22.775,0,0,0,.67,2.77c.7,3.16,1.58,6.31,2.04,9.51a65.409,65.409,0,0,1-.63,24.43c-12.39,1.24-24.77,1.65-37.1-.62a58.392,58.392,0,0,1-16.67-5.87c-1.01-.53-1.96-1.19-2.92-1.81-9.83-6.34-13.46-23-5.07-32.88a52.616,52.616,0,0,1,24.83-16.68c14.58-4.52,27.6-11.9,39.93-20.65a23.89,23.89,0,0,0,4.78-4.85c9.11-11.71,15.72-24.79,20.86-38.63q3.975-10.725,7.43-21.63A158.914,158.914,0,0,1,661.76,270c5.16-9.36,10.51-18.61,15.94-27.81,6.69-11.34,13.23-22.76,19.08-34.57a53.453,53.453,0,0,1,3.81-6.38q12.99-18.87,26.09-37.67a212.051,212.051,0,0,0,29.02-58.79c.68-2.18,1.08-4.45,1.79-6.62a15.369,15.369,0,0,1,15.66-10.94,22.835,22.835,0,0,1,4.41,1,6.131,6.131,0,0,1,1.6.63c10.19,6,20.59,11.74,28.49,20.85a218.464,218.464,0,0,0,30.78,29.88,24.714,24.714,0,0,1,3.25,3.22,371.529,371.529,0,0,0,46.49,44.12c5.99,4.78,11.26,10.28,16.57,15.79,12,12.44,22.02,26.34,31.54,40.67,5.6,8.43,11.27,16.81,17.23,24.98,4.49,6.17,9.31,12.12,14.3,17.89,7.17,8.27,15.32,15.43,25.06,20.64a14.1,14.1,0,0,0,7.02,1.76c9.72-.04,19.43-1.37,29.17-.03,6.38.88,12.16,2.84,17.3,6.88a18.411,18.411,0,0,1,5.13,23.14,43.567,43.567,0,0,1-8.7,11.98,73.861,73.861,0,0,1-16.63,12.08,157.9,157.9,0,0,1-23.68,10.03c-1.45.48-2.87,1.04-4.3,1.56h-3.91a10.96,10.96,0,0,1-.79-2.38,95.014,95.014,0,0,1-.55-11.42c.3-5.62-1.55-10.5-4.19-15.23a13.567,13.567,0,0,0-9.77-7.16c-8.01-1.6-15.99-.8-23.97-.24a42.336,42.336,0,0,0-6.11,1.29Z" fill="#664a77"/>
    <path id="Path_13" data-name="Path 13" d="M948.92,339.15a43.725,43.725,0,0,1,6.11-1.29c7.99-.56,15.96-1.36,23.97.24a13.612,13.612,0,0,1,9.77,7.16c2.64,4.73,4.49,9.61,4.19,15.23a95.114,95.114,0,0,0,.55,11.42,10.792,10.792,0,0,0,.79,2.38h3.91c-.69.89-1.38,1.78-2.14,2.77.28,12.54,2.85,24.48,9.79,35.31,4.22,6.58,7.86,13.54,12.08,20.13a62.979,62.979,0,0,0,7.53,9.34c6.84,7.2,14.08,14.04,19.97,22.09,3.94,5.39,7.88,10.81,11.33,16.51,4.64,7.66,6.38,16.26,7.01,25.14a166.2,166.2,0,0,1-3.9,47.8c-1.93,8.75-4.21,17.43-6.55,26.08a153.375,153.375,0,0,1-12.6,31.28q-6,11.4-11.79,22.91c-1.46,2.89-2.75,5.88-3.94,8.89-3.02,7.68-3.32,15.63-1.97,23.68,2.31,13.78,6.34,27.12,10.4,40.45,3.06,10.04,6.31,20.05,7.87,30.46,1.16,7.73,2.02,15.52,2.88,23.29a109.27,109.27,0,0,1,.74,11.43c.03,4.36-.3,8.73-.49,13.25-2.36.65-4.13-.25-5.7-1.05-6.29-3.18-12.8-6.03-18.24-10.68-5.8-4.96-11.79-9.73-17.38-14.93a142.051,142.051,0,0,0-34.47-23.41c-5.31-2.6-10.71-5.05-16.15-7.37a165.327,165.327,0,0,1-31.58-17.32,113.3,113.3,0,0,0-18.47-10.32c-1.55-.72-3.08-1.51-4.58-2.35-4.81-2.71-9.58-5.5-14.42-8.17-4.01-2.21-8.02-4.43-12.15-6.39-3.72-1.77-5.41-4.82-5.8-8.59-.76-7.4-1.78-14.78-1.34-22.27.43-7.24.67-14.5,1.01-21.74.06-1.33.23-2.65.36-4.19,1.31-.36,2.55-.8,3.82-1.05a86.788,86.788,0,0,0,18.55-5.79,54.326,54.326,0,0,0,14.94-9.47c18.04-16.73,32.17-36.23,41.13-59.26,3.47-8.92,5.42-18.3,7.39-27.63a376.841,376.841,0,0,0,7.32-59.04c.98-19.53-.17-38.94-2.34-58.32-1.32-11.77-2.45-23.55-3.77-35.32-.96-8.54-2.08-17.06-3.11-25.58-.23-1.9-.37-3.8-.54-5.7Z" fill="#664a77"/>
    <path id="Path_14" data-name="Path 14" d="M63.35,632.84c-7.31,1.05-14.5,1.81-21.58,3.17-6.93,1.33-13.8,3.05-20.57,5.01-6.95,2.01-13.75,4.51-20.64,6.81-.99-.78-.41-1.66-.05-2.5a112.325,112.325,0,0,1,15.51-25.34c2.49-3.14,5.12-6.18,7.79-9.18a95.4,95.4,0,0,0,13.07-18.06c.91-1.68,1.87-3.33,2.84-4.98a105.372,105.372,0,0,0,14.17-41.43c.51-4.16,1.51-8.27,1.89-12.44a52.033,52.033,0,0,0-.05-10.29c-.86-8.06.41-16.02.67-24.02.38-11.64,3.75-22.54,7.97-33.25,1.47-3.73,2.65-7.57,4.16-11.28,1.65-4.06,3.51-8.04,5.3-12.05,1.63-3.66,3.43-7.25,4.92-10.97a98.7,98.7,0,0,1,10.8-20.15c3.5-5,6.57-10.3,9.79-15.49a54.8,54.8,0,0,0,7.07-19.24q3.27-17.73,6.41-35.5c.56-3.19.81-6.44,1.2-9.66,1.5-12.32,3.01-24.64,4.46-36.97a10.634,10.634,0,0,0-.37-2.7,6.13,6.13,0,0,1,1.49-.75c2.64-.54,3.75-2.33,4.14-4.81.79-5.07,1.55-10.14,2.44-15.19,1.02-5.8,2.02-11.6,3.28-17.35,1.02-4.7,2.46-5.61,7.17-5.16q4.53.435,9.05,1.1c13.54,1.97,27.11,3.75,40.41,7.04-.33,1.48-.63,2.97-1.01,4.45-4.05,15.91-8.38,31.75-12.08,47.73a189.908,189.908,0,0,0-4.55,42.07c-.03,8.02-.45,16.08,1.19,24,1.47,7.1,2.87,14.24,4.84,21.21a313.117,313.117,0,0,0,17,46.17,151.845,151.845,0,0,0,21.02,32.68,146.943,146.943,0,0,0,24.57,23.95c6.23,4.73,12.23,9.78,18.61,14.91a33.915,33.915,0,0,1,.64,14.43,157.227,157.227,0,0,1-3.6,17.36c-3.14,11.61-6.36,23.19-10.62,34.47-1.75,4.62-3,9.44-4.59,14.52a61.82,61.82,0,0,1-16.68,6.64c-8.72,1.93-17.58,3.2-26.5,4.77" fill="#664a77"/>
    <path id="Path_15" data-name="Path 15" d="M443.94,296.93c11.04,2.05,22.12,3.87,32.9,7.12,6.38,1.93,12.81,3.7,19.2,5.63,2.34.7,4.61,1.64,7.16,2.56-.49,1.44-.6,2.66-1.23,3.49-3.19,4.22-4.84,9.04-5.9,14.13-1.13,5.4-2.2,10.82-3.57,16.17a7.8,7.8,0,0,0,.55,4.96c-.3,6.1-.59,12.2-.92,18.3a20.242,20.242,0,0,1-.49,3.97c-1.68,6.53-1.98,13.18-2.17,19.88-.43,14.64,2.06,28.9,5.22,43.1a80.75,80.75,0,0,1,2.12,23.3,86.919,86.919,0,0,1-4.44,20.66c-2.52,7.8-5.35,15.51-8.23,23.2a255.994,255.994,0,0,0-8.78,26.63,100.188,100.188,0,0,0,1.42,54.83c.55,1.8,1.08,3.6,1.72,5.75a26.971,26.971,0,0,1-3.18,1.33c-15.25,4.27-30.54,8.43-45.77,12.77-18.54,5.28-37.03,10.7-55.55,16.06-1.65.48-3.31.9-5.02,1.36-5.75-3.48-11.57-6.76-16.63-11.16a28.05,28.05,0,0,0-9.88-5.64c-2.18-.71-4.32-1.54-6.43-2.42-7.95-3.34-12.36-9.19-12.81-17.96-.35-6.74.85-13.32,1.61-19.96.72-6.26,1.24-12.53,1.97-18.79.83-7.2,1.77-14.39,2.71-21.58a19.773,19.773,0,0,1,.91-2.97c1.81-.85,3.66-1.84,5.59-2.62,15.24-6.16,27.3-16.59,38.36-28.42a103.181,103.181,0,0,0,15.27-22.08c3.07-5.72,6.13-11.45,9.39-17.06a314.394,314.394,0,0,0,20.16-41.74c5.08-12.76,10.13-25.55,14.78-38.48a170.473,170.473,0,0,0,10.05-48.05c.31-5.34.66-10.68.7-16.02.02-3.42-.49-6.84-.76-10.26Z" fill="#664a77"/>
    <path id="Path_16" data-name="Path 16" d="M623.05,734.34C597,691.76,581.38,556.79,582.71,546.26c-2.5-9.9-3-20.49-2.1-22.79,1.03-2.65,2.25-5.24,3.54-7.78,5.71-11.23,11.6-22.37,17.18-33.67,3.04-6.15,5.86-12.44,8.29-18.85,2.52-6.64,3.29-13.69,3.41-20.79a65.4,65.4,0,0,0,.63-24.43c-.46-3.2-1.34-6.34-2.04-9.51a21.437,21.437,0,0,1-.67-2.77c-.26-3.16.13-4.52,3.48-5.53,6.39-1.92,12.73-4,19.09-6.02a159.488,159.488,0,0,1,24.92-6.09c2.09,9.7,4.23,19.39,6.28,29.1,2.56,12.14,4.58,24.38,7.92,36.36,4.51,16.2,9.47,32.24,16.33,47.62a116.37,116.37,0,0,0,6.18,12.27c6.74,11.32,13.48,22.65,20.63,33.71a139.431,139.431,0,0,0,30.02,32.89c10.57,8.49,21.48,16.55,32.32,24.69a93.943,93.943,0,0,0,20.9,11.79c1.04.43,2.06.93,3.29,1.49.08,1.37.23,2.67.22,3.97-.08,10.5-.23,21-.29,31.51-.03,5.21-1.28,10.21-2.5,15.21-.9,3.7-2.19,7.31-3.17,11a15.987,15.987,0,0,1-4.75,7.66,47.28,47.28,0,0,1-13.25,8.85,111.485,111.485,0,0,0-20.41,11.51c-6.34,4.59-12.79,9.04-19.2,13.53-1.88,1.31-3.75,2.55-4.85,4.73a4.731,4.731,0,0,1-2.45,2.22,27.859,27.859,0,0,1-11.29,1.37,26.8,26.8,0,0,1-10.63-3.37l-2.24-3.55" fill="#664a77"/>
  </g>
</svg>
