<svg xmlns="http://www.w3.org/2000/svg" width="50.035" height="59.52" viewBox="0 0 50.035 59.52"><g transform="translate(18.523)"><g transform="translate(7.421)"><path d="M348.71,2.654a2.653,2.653,0,1,1,2.654,2.654A2.657,2.657,0,0,1,348.71,2.654Z" transform="translate(-348.71)" fill="#5a4368"/><path d="M366.72,19.324a1.314,1.314,0,1,0,1.314-1.314A1.315,1.315,0,0,0,366.72,19.324Z" transform="translate(-365.38 -16.67)" fill="#5a4368"/></g><g transform="translate(0 6.053)"><path d="M248.97,85.337a3.977,3.977,0,1,1,3.977,3.977A3.981,3.981,0,0,1,248.97,85.337Z" transform="translate(-248.97 -81.36)" fill="#5a4368"/><path d="M266.98,102.007a2.636,2.636,0,1,0,2.637-2.637A2.64,2.64,0,0,0,266.98,102.007Z" transform="translate(-265.64 -98.03)" fill="#5a4368"/></g></g><path d="M7.387,92.521q.455.357.928.694l-.776.776A2.484,2.484,0,1,0,11.053,97.5L12.8,95.759a30.169,30.169,0,0,0,12.219,2.512,30.167,30.167,0,0,0,12.219-2.512L38.982,97.5A2.484,2.484,0,1,0,42.5,93.991l-.776-.776q.473-.337.928-.694c4.764-3.744,7.387-8.738,7.387-14.06a17.418,17.418,0,0,0-5.68-12.573,2.821,2.821,0,0,0-.937-5.483H35.656a5.764,5.764,0,1,0-10.923,0H15.842L8.34,43.228,8.329,43.2a2.373,2.373,0,0,0-4.276,2.062L10.611,60.4H6.617a2.822,2.822,0,0,0-.938,5.483A17.42,17.42,0,0,0,0,78.461c0,5.322,2.623,10.315,7.387,14.06Z" transform="translate(0 -38.751)" fill="#5a4368"/><path d="M78.592,77.091H76.284L69.489,61.406c0-.009-.008-.018-.013-.027a1.033,1.033,0,0,1,1.853-.914l7.263,16.627Z" transform="translate(-64.211 -55.438)" fill="#5a4368"/><path d="M355.255,211.453a4.435,4.435,0,0,1-.4,1.828h-8.051a4.422,4.422,0,1,1,8.447-1.829Z" transform="translate(-320.638 -191.627)" fill="#5a4368"/><path d="M107.294,312.036h-36.8a1.483,1.483,0,1,1,0-2.966h36.8a1.483,1.483,0,1,1,0,2.966Z" transform="translate(-63.876 -286.076)" fill="#5a4368"/><path d="M517.76,743.432q1.065-.542,2.064-1.172l.964.964a1.144,1.144,0,0,1-1.618,1.618Z" transform="translate(-479.239 -687.037)" fill="#5a4368"/><path d="M41.688,397.828c-13.056,0-23.678-8.285-23.678-18.469a16.392,16.392,0,0,1,6.15-12.409H59.215a16.39,16.39,0,0,1,6.151,12.409c0,10.184-10.622,18.469-23.678,18.469Z" transform="translate(-16.67 -339.649)" fill="#5a4368"/><path d="M110.879,742.26q1,.629,2.064,1.172l-1.41,1.41a1.144,1.144,0,0,1-1.618-1.618Z" transform="translate(-101.427 -687.037)" fill="#5a4368"/><path d="M568.712,447.886a.67.67,0,0,1-.323-.891,10.608,10.608,0,0,0,1.031-4.526,11.045,11.045,0,0,0-2.066-6.324.67.67,0,1,1,1.1-.758,12.359,12.359,0,0,1,2.3,7.083,11.943,11.943,0,0,1-1.158,5.093.67.67,0,0,1-.607.386.663.663,0,0,1-.283-.063Z" transform="translate(-525.035 -402.726)" fill="#dec2ef"/></svg>