<svg xmlns="http://www.w3.org/2000/svg" width="60.313" height="56.207" viewBox="0 0 60.313 56.207">
  <g id="wand" transform="translate(-111.711 -109.292)">
    <path id="Path_35" data-name="Path 35" d="M151.068,160.741a9.022,9.022,0,0,1,6.056,6.056,1.566,1.566,0,0,0,2.971,0,9.022,9.022,0,0,1,6.056-6.056,1.566,1.566,0,0,0,0-2.971,9.022,9.022,0,0,1-6.056-6.056,1.566,1.566,0,0,0-2.971,0,9.022,9.022,0,0,1-6.056,6.056,1.566,1.566,0,0,0,0,2.971Z" transform="translate(-27.8 -39.351)" fill="#e24f27"/>
    <path id="Path_36" data-name="Path 36" d="M835.475,529.353a5.037,5.037,0,0,1-3.379-3.379,1.427,1.427,0,0,0-2.708,0,5.037,5.037,0,0,1-3.379,3.379,1.427,1.427,0,0,0,0,2.708,5.037,5.037,0,0,1,3.379,3.379,1.427,1.427,0,0,0,2.708,0,5.037,5.037,0,0,1,3.379-3.379,1.427,1.427,0,0,0,0-2.708Z" transform="translate(-664.427 -396.887)" fill="#e24f27"/>
    <path id="Path_37" data-name="Path 37" d="M648.1,803.188a3.47,3.47,0,0,1-2.356-2.356,1.723,1.723,0,0,0-3.268,0,3.47,3.47,0,0,1-2.356,2.356,1.722,1.722,0,0,0,0,3.268,3.47,3.47,0,0,1,2.356,2.356,1.722,1.722,0,0,0,3.268,0,3.47,3.47,0,0,1,2.356-2.356,1.723,1.723,0,0,0,0-3.268Z" transform="translate(-484.671 -661.163)" fill="#e24f27"/>
    <path id="Path_38" data-name="Path 38" d="M564.176,118.369h.839v.839a1.677,1.677,0,0,0,3.354,0v-.839h.839a1.677,1.677,0,1,0,0-3.354h-.839v-.839a1.677,1.677,0,1,0-3.354,0v.839h-.839a1.677,1.677,0,0,0,0,3.354Z" transform="translate(-422.612 -3.207)" fill="#e24f27"/>
    <path id="Path_39" data-name="Path 39" d="M152.237,182.8a2.058,2.058,0,0,0,.423-.407l10.047-12.924a2.032,2.032,0,0,0-.167-2.682l-1.435-1.436h0a2.028,2.028,0,0,0-2.87,0L145.594,178l-9.688,4.155a2.026,2.026,0,0,0-.635.43l-22.965,22.976a2.031,2.031,0,0,0,0,2.872l5.741,5.744a2.029,2.029,0,0,0,2.87,0l12.917-12.925a1.96,1.96,0,0,0,.188-.217l8.423-11.237Zm-32.755,27.068L116.611,207l10.048-10.052,2.87,2.872Z" transform="translate(0 -49.275)" fill="#e24f27"/>
  </g>
</svg>
