<svg xmlns="http://www.w3.org/2000/svg" width="700" height="701.157" viewBox="0 0 700 701.157">
  <g id="logo-footer" transform="translate(0 -0.014)">
    <g id="Group_7" data-name="Group 7" transform="translate(2.947 384.246)">
      <path id="Path_17" data-name="Path 17" d="M134.36,706.71l-11.291,43.219H80.246V727.541L63.893,749.928h0c-13.235,0-27.255-3.312-38.545-13.041C6.856,720.923,2.572,699.9,5.294,682.184c2.34-14.207,10.9-32.116,29.588-40.684,13.041-5.84,38.668-3.435,45.941,3.837V635.66H71.282l10.124-42.83h42.629V706.71h10.319Zm-83.9-15.186a14.872,14.872,0,0,0,14.992,14.992H80.24V691.523a14.828,14.828,0,0,0-14.791-14.985A15,15,0,0,0,50.457,691.523Z" transform="translate(-4.547 -592.83)" fill="#674b77"/>
      <path id="Path_18" data-name="Path 18" d="M277.556,661.925h43.212v68.522h10.319L319.8,773.666h-42.83V751.279l-14.894,22.387c-15.769,2.34-26.373-1.361-40-13.041-18.492-15.964-22.776-36.983-20.054-54.7,2.34-14.207,11.1-32.116,29.588-40.684,17.519-7.979,37.554-5.723,45.941,2.67v-5.976ZM247.19,715.261a14.872,14.872,0,0,0,14.992,14.992h14.791V715.261a14.828,14.828,0,0,0-14.791-14.985A15,15,0,0,0,247.19,715.261Z" transform="translate(-73.764 -616.568)" fill="#674b77"/>
      <path id="Path_19" data-name="Path 19" d="M582.036,661.925h43.212v68.522h10.318l-11.291,43.219h-42.83V751.279l-14.894,22.387c-15.769,2.34-26.373-1.361-40-13.041-18.492-15.964-22.776-36.983-20.054-54.7,2.34-14.207,11.1-32.116,29.588-40.684,17.519-7.979,37.554-5.723,45.941,2.67v-5.976ZM551.67,715.261a14.872,14.872,0,0,0,14.992,14.992h14.791V715.261a14.828,14.828,0,0,0-14.791-14.985A15,15,0,0,0,551.67,715.261Z" transform="translate(-180.896 -616.568)" fill="#674b77"/>
      <path id="Path_20" data-name="Path 20" d="M453.664,649.918h20.378l-10.319,42.441H453.664v69.3h-43.8v-69.3H393.6l10.319-42.441h5.944V637.266l43.8-11.1v23.748Z" transform="translate(-141.436 -604.561)" fill="#674b77"/>
    </g>
    <g id="Group_8" data-name="Group 8" transform="translate(0 541.345)">
      <path id="Path_21" data-name="Path 21" d="M414.244,892.3h20.378L424.3,934.739H414.244v69.3h-43.8v-69.3H354.18L364.5,892.3h5.944V879.646l43.8-11.1V892.3Z" transform="translate(-124.619 -846.941)" fill="#674b77"/>
      <path id="Path_22" data-name="Path 22" d="M45.746,905.19l13.235,49.642L74.362,905.19h32.9l15.18,49.642,13.43-49.642h45.552l-36.594,111.734H103.367l-12.652-42.83-12.457,42.83H36.594L0,905.19Z" transform="translate(0 -859.833)" fill="#674b77"/>
      <path id="Path_23" data-name="Path 23" d="M319.862,880.567V949.09H330.18l-11.485,43.219H276.066V923.4H266.72l10.319-42.83h42.83Zm6.229-45.357-9.735,37.178H273.137L283.65,835.21h42.434Z" transform="translate(-93.846 -835.21)" fill="#674b77"/>
      <path id="Path_24" data-name="Path 24" d="M524.248,1018.492a58.3,58.3,0,1,1,0-116.6,56.954,56.954,0,0,1,21.8,4.09l-10.9,41.656a17.02,17.02,0,0,0-10.9-4.09A16.531,16.531,0,0,0,507.7,960.094a16.7,16.7,0,0,0,16.547,16.742,17.424,17.424,0,0,0,11.1-4.284l9.152,42.441a69.738,69.738,0,0,1-20.248,3.507Z" transform="translate(-163.91 -858.672)" fill="#674b77"/>
      <path id="Path_25" data-name="Path 25" d="M636.728,835.21v67.744l14.4-22.776h4.479c9.152,0,26.088-.389,35.233,9.346,9.735,10.319,11.1,27.644,11.1,36.789V949.09h10.319l-11.485,43.219H658.143v-51.2c0-11.291.972-19.075-11.291-19.075H636.728v70.272h-43.8V878.04H583.58L593.9,835.21h42.83Z" transform="translate(-205.334 -835.21)" fill="#674b77"/>
      <path id="Path_26" data-name="Path 26" d="M822.594,970.185c15.964,11.874,38.934,13.43,61.71,6.229l-9.152,37.372c-19.658,5.256-61.9,8.568-85.264-15.964-13.818-14.4-17.325-37.372-12.263-55.093,5.645-19.269,18.492-32.122,35.428-36.983,15.38-4.479,40.879-3.312,56.648,11.874,16.353,16.158,19.859,38.351,19.658,52.558H822.588Zm-5.256-25.5h28.616c-1.556-7.784-10.707-10.513-13.819-10.513C825.906,934.174,820.261,936.9,817.338,944.687Z" transform="translate(-272.835 -859.222)" fill="#674b77"/>
      <path id="Path_27" data-name="Path 27" d="M1018.428,948.057c-8.368-7.4-17.519-9.93-23.359-9.541-1.361.194-3.7,1.75-3.9,3.7-.194.972,0,3.506,5.84,5.062,3.9,1.167,10.513,3.312,14.408,5.451,7.784,3.9,13.041,7.59,17.13,13.624,5.84,8.568,5.645,20.443.972,30.56-6.034,13.624-19.269,18.881-30.949,20.637-15.575,2.333-31.727-1.75-51.392-8.562l8.568-37.178c10.9,8.757,20.443,10.513,25.3,10.9,3.118.194,6.423-1.556,6.812-3.9.389-1.556-.972-4.284-3.7-5.062a87.87,87.87,0,0,1-14.791-4.673c-25.116-9.93-23.943-31.338-22.193-39.906a32.4,32.4,0,0,1,22.97-24.72c13.624-3.9,33.872-2.333,56.454,8.957l-8.173,34.65Z" transform="translate(-332.985 -858.898)" fill="#674b77"/>
    </g>
    <path id="Path_28" data-name="Path 28" d="M115.412,189.472a22.547,22.547,0,0,1-3.319-.279,70.733,70.733,0,0,1-27.546-12.334,43.207,43.207,0,0,1-5.684-5.315,17.35,17.35,0,0,1-4.369-13.371,5.171,5.171,0,0,1,.583-2.113,16.678,16.678,0,0,1,5.2-6.164,24.339,24.339,0,0,1,8.847-3.649,63.307,63.307,0,0,1,23.243-.739,10.911,10.911,0,0,0,11.381-4.485c.823-1.082,1.666-2.152,2.456-3.267q13.193-18.628,26.4-37.262c1.432-2.009,3.144-3.824,4.66-5.781,1.206-1.562,2.294-3.208,3.455-4.8a16.112,16.112,0,0,1,1.4-1.711c9.392-9.7,18.148-19.976,27.131-30.042,8.815-9.884,17.681-19.736,26.814-29.329a110.748,110.748,0,0,1,23.476-18.673c3.182-1.906,6.229-4.031,9.327-6.067,1.141-.745,2.256-1.53,3.4-2.262a10.268,10.268,0,0,1,15.86,6.209,106.043,106.043,0,0,0,3.96,11.556c4.116,11.122,10.234,21.117,17.079,30.716,7.259,10.176,14.544,20.339,21.687,30.593,8.51,12.211,15.413,25.362,22.1,38.617,3.176,6.294,6.177,12.671,9.243,19.017a14.534,14.534,0,0,1,1.05,2.372A60.3,60.3,0,0,0,349,153.733c1.672,3.033,3.254,6.112,4.887,9.171,1.1,2.068,2,4.278,3.947,5.762a.727.727,0,0,1,.24.285c1.7,3.986,5.224,6.54,7.765,9.871A21.173,21.173,0,0,0,375.993,186c2.333.81,4.667,1.653,7.032,2.359a44.5,44.5,0,0,1,13.994,7.493,81.38,81.38,0,0,1,6.618,5.393c3.494,3.254,5.574,7.24,5.328,12.166a12.088,12.088,0,0,1-5.788,10.208,31.318,31.318,0,0,1-14.518,5.179c-7.408.577-14.823,1.167-22.244.24-2.683-.337-5.328-1.011-7.992-1.53a5.052,5.052,0,0,1-.356-3.215c.888-3.461,1.588-6.974,2.314-10.481a22.261,22.261,0,0,1,3.824-9.158,8.775,8.775,0,0,0,.8-2.262c-1.653-.6-3.124-1.206-4.641-1.659-4.142-1.244-8.309-2.4-12.444-3.649-6.987-2.106-14.169-3.286-21.324-4.615-.94-.266-1.86-.6-2.813-.8-9.787-2.048-19.548-4.232-29.381-6.067-8.737-1.633-17.539-2.93-26.328-4.258-13.553-2.048-27.151-3.727-40.619-6.4-11.019-2.184-22.173-3.669-33.373-4.764-4.919-.48-9.813-1.186-14.726-1.724-6.015-.655-12.043-1.251-18.07-1.841a11.781,11.781,0,0,0-1.841.1c-8.627-2.132-17.422-3.286-26.192-4.563-1.951-.285-3.9-.525-5.866-.713-3.053-.3-3.986.3-4.647,3.344-.81,3.727-1.465,7.493-2.126,11.245-.577,3.273-1.069,6.559-1.581,9.845a3.29,3.29,0,0,1-2.683,3.118,4.092,4.092,0,0,0-.966.486Z" transform="translate(-26.194 0)" fill="#674b77"/>
    <path id="Path_29" data-name="Path 29" d="M816.93,347.779q-5.338.632-10.669,1.27-11.054,1.332-22.108,2.664c-4.544.551-9.094,1.082-13.624,1.718-7.959,1.115-15.931,2.2-23.865,3.5-7.078,1.16-14.1,2.651-21.156,3.9-6.819,1.212-13.65,2.327-20.488,3.448-8.3,1.361-16.619,2.606-24.9,4.025q-16.09,2.751-31.98,6.52-9.742,2.314-19.483,4.634a103.367,103.367,0,0,0-16.152,3.947c-4.122,1.309-8.232,2.664-12.373,3.9-2.178.655-2.431,1.53-2.256,3.584a14.775,14.775,0,0,0,.434,1.8c.454,2.048,1.024,4.09,1.322,6.164a42.392,42.392,0,0,1-.408,15.834c-8.031.8-16.055,1.07-24.046-.4a37.848,37.848,0,0,1-10.8-3.8c-.655-.344-1.27-.771-1.893-1.173-6.371-4.109-8.724-14.907-3.286-21.311a34.1,34.1,0,0,1,16.094-10.811c9.45-2.93,17.889-7.713,25.88-13.384a15.486,15.486,0,0,0,3.1-3.143,92.976,92.976,0,0,0,13.52-25.038q2.576-6.951,4.816-14.019a103.008,103.008,0,0,1,8.206-18.641c3.344-6.067,6.812-12.062,10.332-18.025,4.336-7.35,8.575-14.752,12.367-22.406a34.646,34.646,0,0,1,2.469-4.135q8.419-12.231,16.91-24.416a137.437,137.437,0,0,0,18.809-38.1c.441-1.413.7-2.884,1.16-4.291a9.962,9.962,0,0,1,10.15-7.091,14.8,14.8,0,0,1,2.858.648,3.974,3.974,0,0,1,1.037.408c6.6,3.889,13.345,7.609,18.466,13.514a141.594,141.594,0,0,0,19.95,19.367,16.018,16.018,0,0,1,2.106,2.087,240.808,240.808,0,0,0,30.132,28.6,113.584,113.584,0,0,1,10.74,10.234c7.778,8.063,14.272,17.072,20.443,26.36,3.63,5.464,7.3,10.9,11.168,16.191,2.91,4,6.034,7.856,9.268,11.6a57.473,57.473,0,0,0,16.243,13.378,9.142,9.142,0,0,0,4.55,1.141c6.3-.026,12.594-.888,18.906-.019a22.474,22.474,0,0,1,11.213,4.459,11.933,11.933,0,0,1,3.325,15,28.238,28.238,0,0,1-5.639,7.765,47.872,47.872,0,0,1-10.779,7.83,102.345,102.345,0,0,1-15.348,6.5c-.94.311-1.86.674-2.787,1.011h-2.534a7.106,7.106,0,0,1-.512-1.543,61.609,61.609,0,0,1-.356-7.4,17.928,17.928,0,0,0-2.716-9.871,8.793,8.793,0,0,0-6.332-4.641c-5.192-1.037-10.364-.518-15.536-.156a27.437,27.437,0,0,0-3.96.836Z" transform="translate(-195.687 -64.903)" fill="#674b77"/>
    <path id="Path_30" data-name="Path 30" d="M928.626,435.729a28.348,28.348,0,0,1,3.96-.836c5.179-.363,10.344-.882,15.536.156a8.822,8.822,0,0,1,6.332,4.641,17.926,17.926,0,0,1,2.716,9.871,61.674,61.674,0,0,0,.356,7.4,6.993,6.993,0,0,0,.512,1.543h2.534c-.447.577-.895,1.154-1.387,1.8.181,8.128,1.847,15.867,6.345,22.886,2.735,4.265,5.095,8.776,7.83,13.047a40.816,40.816,0,0,0,4.881,6.054c4.433,4.667,9.126,9.1,12.943,14.318,2.554,3.494,5.107,7.006,7.343,10.7,3.007,4.965,4.135,10.539,4.544,16.294a107.725,107.725,0,0,1-2.528,30.981c-1.251,5.671-2.729,11.3-4.245,16.9a99.411,99.411,0,0,1-8.167,20.274q-3.889,7.389-7.642,14.849c-.946,1.873-1.782,3.811-2.554,5.762a28.348,28.348,0,0,0-1.277,15.348c1.5,8.932,4.109,17.578,6.741,26.218,1.983,6.507,4.09,13,5.1,19.743.752,5.01,1.309,10.059,1.867,15.1a70.84,70.84,0,0,1,.48,7.408c.019,2.826-.194,5.658-.318,8.588a4.8,4.8,0,0,1-3.694-.681c-4.077-2.061-8.3-3.908-11.822-6.922-3.759-3.215-7.642-6.306-11.265-9.677a92.069,92.069,0,0,0-22.342-15.173c-3.442-1.685-6.942-3.273-10.468-4.777a107.158,107.158,0,0,1-20.469-11.226,73.435,73.435,0,0,0-11.971-6.689c-1-.467-2-.979-2.969-1.523-3.118-1.756-6.209-3.565-9.346-5.3-2.6-1.432-5.2-2.871-7.875-4.142a6.454,6.454,0,0,1-3.759-5.568c-.493-4.8-1.154-9.58-.869-14.434.279-4.693.434-9.4.655-14.091.039-.862.149-1.718.233-2.716.849-.233,1.653-.518,2.476-.681a56.25,56.25,0,0,0,12.023-3.753,35.212,35.212,0,0,0,9.683-6.138c11.693-10.844,20.851-23.482,26.658-38.409,2.249-5.781,3.513-11.861,4.79-17.908a244.247,244.247,0,0,0,4.744-38.267,233.778,233.778,0,0,0-1.517-37.8c-.856-7.629-1.588-15.264-2.444-22.893-.622-5.535-1.348-11.057-2.016-16.58-.149-1.231-.24-2.463-.35-3.694Z" transform="translate(-307.383 -152.853)" fill="#674b77"/>
    <path id="Path_31" data-name="Path 31" d="M96.111,277.063a3.972,3.972,0,0,1,.966-.486,3.29,3.29,0,0,0,2.683-3.118c.512-3.286,1-6.572,1.581-9.845.661-3.759,1.309-7.519,2.126-11.245.661-3.046,1.594-3.636,4.647-3.344q2.936.282,5.866.713c8.776,1.277,17.571,2.431,26.192,4.563-.214.959-.408,1.925-.655,2.884-2.625,10.312-5.431,20.579-7.83,30.936a123.09,123.09,0,0,0-2.949,27.268c-.019,5.2-.292,10.422.771,15.556.953,4.6,1.86,9.23,3.137,13.747a202.949,202.949,0,0,0,11.019,29.925A98.419,98.419,0,0,0,157.289,395.8a95.241,95.241,0,0,0,15.925,15.523c4.038,3.066,7.927,6.339,12.062,9.664a21.981,21.981,0,0,1,.415,9.353,101.905,101.905,0,0,1-2.333,11.252c-2.035,7.525-4.122,15.031-6.883,22.342-1.134,2.994-1.944,6.118-2.975,9.411a40.067,40.067,0,0,1-10.811,4.3c-5.652,1.251-11.394,2.074-17.176,3.092-.6-1.692-.175-3.15-.058-4.6.4-4.809.83-9.619,1.2-14.428a12.439,12.439,0,0,0-.778-5.477,10.191,10.191,0,0,0-7.382-6.7,24.484,24.484,0,0,0-5.14-.609,247.877,247.877,0,0,0-28.933,1.134c-6.164.59-12.321,1.167-18.492,1.692-4.861.415-8.815,2.288-11.369,6.643a5.884,5.884,0,0,1-1.5,1.607,10.605,10.605,0,0,0-3.882,6.157c-.946,3.844-1.912,7.681-2.832,11.531-1.6,6.741-3.72,13.326-5.7,20.08-4.738.681-9.4,1.173-13.987,2.055-4.492.862-8.944,1.977-13.332,3.247-4.5,1.3-8.912,2.923-13.378,4.414-.642-.506-.266-1.076-.032-1.62a72.8,72.8,0,0,1,10.053-16.424c1.614-2.035,3.319-4.006,5.049-5.95a61.834,61.834,0,0,0,8.471-11.706c.59-1.089,1.212-2.158,1.841-3.228a68.3,68.3,0,0,0,9.184-26.853c.331-2.7.979-5.36,1.225-8.063a33.725,33.725,0,0,0-.032-6.669c-.557-5.224.266-10.383.434-15.569.246-7.544,2.431-14.609,5.166-21.551.953-2.418,1.718-4.906,2.7-7.311,1.069-2.631,2.275-5.211,3.435-7.81,1.056-2.372,2.223-4.7,3.189-7.11a63.97,63.97,0,0,1,7-13.06c2.269-3.241,4.258-6.676,6.345-10.04a35.518,35.518,0,0,0,4.582-12.47q2.119-11.492,4.155-23.009c.363-2.068.525-4.174.778-6.261.972-7.985,1.951-15.97,2.891-23.962a6.892,6.892,0,0,0-.24-1.75Z" transform="translate(-6.893 -87.591)" fill="#674b77"/>
    <path id="Path_32" data-name="Path 32" d="M421.006,296.927c7.156,1.329,14.337,2.508,21.324,4.615,4.135,1.251,8.3,2.4,12.444,3.649,1.517.454,2.988,1.063,4.641,1.659a8.775,8.775,0,0,1-.8,2.262,22.3,22.3,0,0,0-3.824,9.158c-.732,3.5-1.426,7.013-2.314,10.481a5.058,5.058,0,0,0,.357,3.215c-.194,3.954-.382,7.907-.6,11.861a13.118,13.118,0,0,1-.318,2.573,57.8,57.8,0,0,0-1.407,12.885c-.279,9.489,1.335,18.731,3.383,27.935a52.337,52.337,0,0,1,1.374,15.1,56.338,56.338,0,0,1-2.878,13.391c-1.633,5.056-3.468,10.053-5.334,15.037a165.935,165.935,0,0,0-5.691,17.26,64.938,64.938,0,0,0,.92,35.538c.357,1.167.7,2.333,1.115,3.727a17.481,17.481,0,0,1-2.061.862c-9.884,2.768-19.794,5.464-29.666,8.277-12.017,3.422-24,6.935-36,10.409-1.069.311-2.145.583-3.254.882a75.6,75.6,0,0,1-10.779-7.233,18.18,18.18,0,0,0-6.4-3.656c-1.413-.46-2.8-1-4.168-1.569-5.153-2.165-8.011-5.956-8.3-11.641-.227-4.369.551-8.633,1.043-12.937.467-4.057.8-8.121,1.277-12.179.538-4.667,1.147-9.327,1.756-13.987a12.815,12.815,0,0,1,.59-1.925c1.173-.551,2.372-1.193,3.623-1.7,9.878-3.993,17.694-10.753,24.863-18.42a66.875,66.875,0,0,0,9.9-14.311c1.99-3.707,3.973-7.421,6.086-11.057a203.771,203.771,0,0,0,13.067-27.054c3.293-8.27,6.566-16.56,9.58-24.941a110.492,110.492,0,0,0,6.514-31.143c.2-3.461.428-6.922.454-10.383.013-2.217-.318-4.433-.493-6.65Z" transform="translate(-120.589 -104.467)" fill="#674b77"/>
    <path id="Path_33" data-name="Path 33" d="M611.077,520.547a42.389,42.389,0,0,0,.408-15.834c-.3-2.074-.868-4.109-1.322-6.164a13.886,13.886,0,0,1-.434-1.8c-.169-2.048.084-2.93,2.256-3.584,4.142-1.244,8.251-2.593,12.373-3.9a103.364,103.364,0,0,1,16.152-3.947c1.355,6.287,2.742,12.568,4.07,18.861,1.659,7.869,2.969,15.8,5.133,23.567A220.3,220.3,0,0,0,660.3,558.613a75.452,75.452,0,0,0,4.006,7.953c4.369,7.337,8.737,14.681,13.371,21.849a90.373,90.373,0,0,0,19.457,21.318c6.851,5.5,13.922,10.727,20.948,16a60.887,60.887,0,0,0,13.546,7.642c.674.279,1.335.6,2.132.966.052.888.149,1.731.143,2.573-.052,6.806-.149,13.611-.188,20.423a42.633,42.633,0,0,1-1.62,9.858c-.583,2.4-1.419,4.738-2.055,7.13a10.363,10.363,0,0,1-3.079,4.965,30.645,30.645,0,0,1-8.588,5.736,72.253,72.253,0,0,0-13.229,7.46c-4.109,2.975-8.29,5.859-12.444,8.769a8.634,8.634,0,0,0-3.143,3.066,3.066,3.066,0,0,1-1.588,1.439,18.057,18.057,0,0,1-7.318.888A1.981,1.981,0,0,1,678.7,704.1a14.82,14.82,0,0,1,.622-2.132c1.925-5.879,3.636-11.809,5.244-17.785,2.087-7.758,4.511-15.426,6.838-23.119.538-1.769,1.3-3.474,1.893-5.231.5-1.478-.02-2.5-1.517-2.761-1.7-.3-3.429-.447-5.153-.616-5.03-.506-10.059-1-15.18-1.5a90.513,90.513,0,0,1-1.335-14.2c-.1-14.007-1.27-27.942-2.463-41.877a45.6,45.6,0,0,0-1-6.961c-.493-2-2.314-2.845-4.174-3.2a37.587,37.587,0,0,0-5.535-.544c-4.453-.169-8.906-.233-13.365-.356-4.945-.136-9.9-.318-14.843-.441-3.085-.078-6.157.162-9.243.369a72.269,72.269,0,0,1-11.09-.5,6.389,6.389,0,0,1-2.586-1.368,37.647,37.647,0,0,0-8.536-4.44c-1.86-.648-3.8-1.057-5.7-1.581-1.556-.428-2.074-1.244-1.491-2.735.668-1.718,1.458-3.4,2.294-5.043,3.7-7.279,7.518-14.5,11.135-21.823,1.97-3.986,3.8-8.063,5.373-12.218a39.551,39.551,0,0,0,2.21-13.475Z" transform="translate(-207.54 -170.756)" fill="#674b77"/>
  </g>
</svg>
