<?xml version="1.0" encoding="UTF-8"?><svg id="Layer_1" xmlns="http://www.w3.org/2000/svg" viewBox="0 0 1766.11 301.6"><defs><style>.cls-1{fill:#fff;}</style></defs><g><path class="cls-1" d="M200.28,175.7l-17.42,66.68H116.79v-34.54l-25.23,34.54h0c-20.42,0-42.05-5.11-59.47-20.12C3.56,197.62-3.05,165.19,1.16,137.85c3.61-21.92,16.82-49.55,45.65-62.77,20.12-9.01,59.66-5.3,70.88,5.92v-14.93h-14.72L118.59,0h65.77V175.7h15.92Zm-129.45-23.43c0,12.92,10.21,23.13,23.13,23.13h22.82v-23.13c0-12.91-10.21-23.12-22.82-23.12s-23.13,10.21-23.13,23.12Z"/><path class="cls-1" d="M314.42,69.98h66.67v105.72h15.92l-17.42,66.68h-66.08v-34.54l-22.98,34.54c-24.33,3.61-40.69-2.1-61.72-20.12-28.53-24.63-35.14-57.06-30.94-84.4,3.61-21.92,17.12-49.55,45.65-62.77,27.03-12.31,57.94-8.83,70.88,4.12v-9.22Zm-46.85,82.29c0,12.92,10.21,23.13,23.13,23.13h22.82v-23.13c0-12.91-10.21-23.12-22.82-23.12s-23.13,10.21-23.13,23.12Z"/><path class="cls-1" d="M618.9,69.98h66.67v105.72h15.92l-17.42,66.68h-66.08v-34.54l-22.98,34.54c-24.33,3.61-40.69-2.1-61.72-20.12-28.53-24.63-35.14-57.06-30.94-84.4,3.61-21.92,17.12-49.55,45.65-62.77,27.03-12.31,57.94-8.83,70.88,4.12v-9.22Zm-46.85,82.29c0,12.92,10.21,23.13,23.13,23.13h22.82v-23.13c0-12.91-10.21-23.12-22.82-23.12s-23.13,10.21-23.13,23.12Z"/><path class="cls-1" d="M481.72,69.98h31.44l-15.92,65.48h-15.52v106.92h-67.58v-106.92h-25.09l15.92-65.48h9.17v-19.52l67.58-17.12v36.64Z"/></g><g><path class="cls-1" d="M1132.95,125h31.44l-15.92,65.48h-15.52v106.92h-67.58v-106.92h-25.09l15.92-65.48h9.17v-19.52l67.58-17.12v36.64Z"/><path class="cls-1" d="M756.68,125l20.42,76.59,23.73-76.59h50.76l23.42,76.59,20.72-76.59h70.28l-56.46,172.39h-63.97l-19.52-66.08-19.22,66.08h-64.27l-56.46-172.39h70.58Z"/><path class="cls-1" d="M1034.82,125v105.72h15.92l-17.72,66.68h-65.77v-106.32h-14.42l15.92-66.08h66.08Zm9.61-69.98l-15.02,57.36h-66.68l16.22-57.36h65.47Z"/><path class="cls-1" d="M1242.06,301.6c-49.55,0-90.1-40.25-90.1-90.1s40.55-89.8,90.1-89.8c11.71,0,22.22,1.8,33.64,6.31l-16.82,64.27c-3.9-3.6-10.51-6.31-16.82-6.31-14.12,0-25.53,11.41-25.53,25.53s11.41,25.83,25.53,25.83c6.61,0,13.82-3.3,17.12-6.61l14.12,65.48c-8.11,2.7-20.42,5.41-31.24,5.41Z"/><path class="cls-1" d="M1351.68,55.02v104.52l22.22-35.14h6.91c14.12,0,40.25-.6,54.36,14.42,15.02,15.92,17.12,42.65,17.12,56.76v35.14h15.92l-17.72,66.68h-65.77v-78.99c0-17.42,1.5-29.43-17.42-29.43h-15.62v108.42h-67.58V121.1h-14.42l15.92-66.08h66.08Z"/><path class="cls-1" d="M1534.3,226.22c24.63,18.32,60.07,20.72,95.21,9.61l-14.12,57.66c-30.33,8.11-95.51,13.22-131.55-24.63-21.32-22.22-26.73-57.66-18.92-85,8.71-29.73,28.53-49.56,54.66-57.06,23.73-6.91,63.07-5.11,87.4,18.32,25.23,24.93,30.64,59.17,30.33,81.09h-103.02Zm-8.11-39.34h44.15c-2.4-12.01-16.52-16.22-21.32-16.22-9.61,0-18.32,4.21-22.83,16.22Z"/><path class="cls-1" d="M1743.65,192.58c-12.91-11.41-27.03-15.32-36.04-14.72-2.1,.3-5.71,2.7-6.01,5.71-.3,1.5,0,5.41,9.01,7.81,6.01,1.8,16.22,5.11,22.23,8.41,12.01,6.01,20.12,11.71,26.43,21.02,9.01,13.22,8.71,31.54,1.5,47.15-9.31,21.02-29.73,29.13-47.75,31.84-24.03,3.6-48.95-2.7-79.29-13.21l13.22-57.36c16.82,13.51,31.54,16.22,39.04,16.82,4.81,.3,9.91-2.4,10.51-6.01,.6-2.4-1.5-6.61-5.71-7.81-6.91-1.8-9.91-2.1-22.82-7.21-38.75-15.32-36.94-48.35-34.24-61.57,4.21-19.22,18.02-33.34,35.44-38.14,21.02-6.01,52.26-3.6,87.1,13.82l-12.61,53.46Z"/></g></svg>